<mxfile host="app.diagrams.net" modified="2024-03-06T04:23:04.475Z" agent="Mozilla/5.0 (Windows NT 10.0; Win64; x64) AppleWebKit/537.36 (KHTML, like Gecko) Chrome/122.0.0.0 Safari/537.36" etag="63zkbQjpGFqk058DpQcY" version="24.0.2" type="github">
  <diagram id="C5RBs43oDa-KdzZeNtuy" name="Page-1">
    <mxGraphModel dx="1100" dy="585" grid="1" gridSize="10" guides="1" tooltips="1" connect="1" arrows="1" fold="1" page="1" pageScale="1" pageWidth="827" pageHeight="1169" math="0" shadow="0">
      <root>
        <mxCell id="WIyWlLk6GJQsqaUBKTNV-0" />
        <mxCell id="WIyWlLk6GJQsqaUBKTNV-1" parent="WIyWlLk6GJQsqaUBKTNV-0" />
        <mxCell id="WIyWlLk6GJQsqaUBKTNV-10" value="&lt;span style=&quot;background-color: initial;&quot;&gt;Is car?&lt;/span&gt;" style="rhombus;whiteSpace=wrap;html=1;shadow=0;fontFamily=Helvetica;fontSize=12;align=center;strokeWidth=1;spacing=6;spacingTop=-4;" parent="WIyWlLk6GJQsqaUBKTNV-1" vertex="1">
          <mxGeometry x="192.88" y="280" width="177.12" height="90" as="geometry" />
        </mxCell>
        <mxCell id="jQXOdrWvZTS6PttGMpkr-0" value="Start" style="ellipse;whiteSpace=wrap;html=1;" vertex="1" parent="WIyWlLk6GJQsqaUBKTNV-1">
          <mxGeometry x="207.5" y="10" width="155" height="60" as="geometry" />
        </mxCell>
        <mxCell id="jQXOdrWvZTS6PttGMpkr-6" value="IR senses car" style="shape=parallelogram;perimeter=parallelogramPerimeter;whiteSpace=wrap;html=1;fixedSize=1;" vertex="1" parent="WIyWlLk6GJQsqaUBKTNV-1">
          <mxGeometry x="195" y="490" width="160" height="70" as="geometry" />
        </mxCell>
        <mxCell id="jQXOdrWvZTS6PttGMpkr-7" value="update on lcd&lt;div&gt;&amp;nbsp;and app&lt;/div&gt;" style="shape=parallelogram;perimeter=parallelogramPerimeter;whiteSpace=wrap;html=1;fixedSize=1;" vertex="1" parent="WIyWlLk6GJQsqaUBKTNV-1">
          <mxGeometry x="395" y="490" width="145" height="70" as="geometry" />
        </mxCell>
        <mxCell id="jQXOdrWvZTS6PttGMpkr-8" value="servo opens gate" style="rounded=0;whiteSpace=wrap;html=1;" vertex="1" parent="WIyWlLk6GJQsqaUBKTNV-1">
          <mxGeometry x="193.5" y="400" width="169" height="60" as="geometry" />
        </mxCell>
        <mxCell id="jQXOdrWvZTS6PttGMpkr-10" value="user observes&lt;span style=&quot;background-color: initial;&quot;&gt;&amp;nbsp;display&lt;/span&gt;" style="rounded=0;whiteSpace=wrap;html=1;" vertex="1" parent="WIyWlLk6GJQsqaUBKTNV-1">
          <mxGeometry x="202.5" y="90" width="160" height="65" as="geometry" />
        </mxCell>
        <mxCell id="jQXOdrWvZTS6PttGMpkr-11" value="open app" style="rounded=0;whiteSpace=wrap;html=1;" vertex="1" parent="WIyWlLk6GJQsqaUBKTNV-1">
          <mxGeometry x="430" y="90" width="140" height="65" as="geometry" />
        </mxCell>
        <mxCell id="jQXOdrWvZTS6PttGMpkr-12" value="Is&lt;span style=&quot;background-color: initial;&quot;&gt;&amp;nbsp;&lt;/span&gt;&lt;div&gt;&lt;span style=&quot;background-color: initial;&quot;&gt;slot&lt;/span&gt;&lt;div&gt;&lt;div&gt;&amp;nbsp;empty?&lt;/div&gt;&lt;/div&gt;&lt;/div&gt;" style="rhombus;whiteSpace=wrap;html=1;" vertex="1" parent="WIyWlLk6GJQsqaUBKTNV-1">
          <mxGeometry x="195" y="170" width="175" height="90" as="geometry" />
        </mxCell>
        <mxCell id="jQXOdrWvZTS6PttGMpkr-16" value="user pays manually" style="rounded=0;whiteSpace=wrap;html=1;" vertex="1" parent="WIyWlLk6GJQsqaUBKTNV-1">
          <mxGeometry x="600" y="680" width="150" height="60" as="geometry" />
        </mxCell>
        <mxCell id="jQXOdrWvZTS6PttGMpkr-17" value="&lt;div&gt;RTC gives time&lt;/div&gt;" style="rounded=0;whiteSpace=wrap;html=1;" vertex="1" parent="WIyWlLk6GJQsqaUBKTNV-1">
          <mxGeometry x="600" y="490" width="150" height="60" as="geometry" />
        </mxCell>
        <mxCell id="jQXOdrWvZTS6PttGMpkr-25" value="Duration&amp;nbsp; and cost calculate&amp;nbsp;" style="rounded=0;whiteSpace=wrap;html=1;" vertex="1" parent="WIyWlLk6GJQsqaUBKTNV-1">
          <mxGeometry x="600" y="590" width="150" height="50" as="geometry" />
        </mxCell>
        <mxCell id="jQXOdrWvZTS6PttGMpkr-28" value="car leaves slot&amp;nbsp;" style="rounded=0;whiteSpace=wrap;html=1;" vertex="1" parent="WIyWlLk6GJQsqaUBKTNV-1">
          <mxGeometry x="381" y="680" width="159" height="60" as="geometry" />
        </mxCell>
        <mxCell id="jQXOdrWvZTS6PttGMpkr-34" value="open the gate" style="rounded=0;whiteSpace=wrap;html=1;" vertex="1" parent="WIyWlLk6GJQsqaUBKTNV-1">
          <mxGeometry x="392.5" y="825" width="147.5" height="60" as="geometry" />
        </mxCell>
        <mxCell id="jQXOdrWvZTS6PttGMpkr-35" value="update on lcd&lt;div&gt;&amp;nbsp;and app&lt;/div&gt;" style="shape=parallelogram;perimeter=parallelogramPerimeter;whiteSpace=wrap;html=1;fixedSize=1;" vertex="1" parent="WIyWlLk6GJQsqaUBKTNV-1">
          <mxGeometry x="195" y="680" width="140" height="70" as="geometry" />
        </mxCell>
        <mxCell id="jQXOdrWvZTS6PttGMpkr-44" value="" style="ellipse;whiteSpace=wrap;html=1;" vertex="1" parent="WIyWlLk6GJQsqaUBKTNV-1">
          <mxGeometry x="610" y="890" width="120" height="80" as="geometry" />
        </mxCell>
        <mxCell id="jQXOdrWvZTS6PttGMpkr-46" value="IR senses car" style="shape=parallelogram;perimeter=parallelogramPerimeter;whiteSpace=wrap;html=1;fixedSize=1;" vertex="1" parent="WIyWlLk6GJQsqaUBKTNV-1">
          <mxGeometry x="175" y="820" width="160" height="70" as="geometry" />
        </mxCell>
      </root>
    </mxGraphModel>
  </diagram>
</mxfile>
